<svg width="45" height="46" viewBox="0 0 45 46" fill="none" xmlns="http://www.w3.org/2000/svg">
<path d="M0 26.7785V28.44C0 31.6902 1.23838 34.7456 3.4875 37.0448C5.73838 39.344 8.72842 40.6095 11.9092 40.6095C16.5164 40.6095 20.5198 37.9223 22.5 34.002C24.4802 37.9223 28.4836 40.6095 33.0908 40.6095C36.2716 40.6095 39.2616 39.344 41.5116 37.0457C43.7616 34.7456 45 31.6902 45 28.44V26.7785C45 26.0348 44.4094 25.4313 43.6816 25.4313C42.9539 25.4313 42.3633 26.0348 42.3633 26.7785V28.44C42.3633 30.9709 41.3991 33.3499 39.6475 35.1408C37.8958 36.9298 35.5676 37.9151 33.0908 37.9151C27.9782 37.9151 23.8184 33.6643 23.8184 28.44V26.2153C22.971 26.4185 22.0296 26.42 21.1816 26.2135V28.44C21.1816 33.6643 17.0218 37.9151 11.9092 37.9151C9.43242 37.9151 7.1042 36.9298 5.35166 35.1399C3.60088 33.3499 2.63672 30.9709 2.63672 28.44V26.7785C2.63672 26.0348 2.04609 25.4313 1.31836 25.4313C0.590626 25.4313 0 26.0348 0 26.7785Z" fill="white"/>
<path d="M10.5978 10.8359C14.7222 5.11611 23.6595 4.05631 29.6604 6.93544C34.4028 9.06591 37.7507 14.7864 36.2846 19.7813C35.8611 21.2936 34.5937 22.3534 33.0547 22.4801C31.507 22.6077 30.0805 21.7643 29.4214 20.3318L28.8228 19.0322C28.2004 17.7019 26.2893 17.8914 25.9356 19.3214L25.4469 21.3206C25.0282 23.226 22.8729 24.2163 21.1816 23.3763C20.3836 22.9929 19.7806 22.2591 19.5512 21.3206L19.0626 19.3214C18.8912 18.6191 18.2768 18.1287 17.5684 18.1287C16.9752 18.1287 16.4285 18.4835 16.1754 19.0322L15.5768 20.3318C14.9168 21.7642 13.4912 22.6076 11.9434 22.4801C6.81501 21.8526 7.99625 14.0353 10.5978 10.8359Z" fill="white"/>
</svg>
